<?xml version="1.0" encoding="UTF-8"?>
<svg id="Calque_1" xmlns="http://www.w3.org/2000/svg" viewBox="0 0 1080 1080">
  <g id="haltère">
    <path d="M393.51,567.99c-.23-12.6-3.05-24.59-7.94-35.43l-43.8,13.54c-7.61-11.61-20.76-19.26-35.68-19.26-23.57,0-42.69,19.12-42.69,42.69s19.12,42.69,42.69,42.69c18.98,0,35.06-12.38,40.6-29.51l45.09.48c-7.71,36.47-40.09,63.84-78.85,63.84-44.53,0-80.62-36.09-80.62-80.61s36.09-80.62,80.62-80.62c25.66,0,48.53,11.99,63.28,30.67-16.46-22.61-43.14-37.3-73.23-37.3-50.02,0-90.57,40.55-90.57,90.57s40.55,90.55,90.57,90.55c45.44,0,83.06-33.49,89.56-77.11.66-4.39.99-8.89.99-13.45,0-.58,0-1.18-.03-1.76ZM310.65,607.25c-21.06,0-38.13-17.08-38.13-38.13s17.08-38.13,38.13-38.13c12.5,0,23.59,6.02,30.54,15.3l-15.02,4.64c-4.06-3.15-9.17-5.02-14.69-5.02-13.28,0-24.04,10.76-24.04,24.04s10.76,24.04,24.04,24.04c8.65,0,16.25-4.58,20.47-11.44l14.32.17c-5.47,14.34-19.36,24.54-35.63,24.54Z"/>
    <path d="M348.73,567.33c-.08-1.44-.23-2.88-.45-4.29-.07-.55-.17-1.08-.28-1.59-1.06-5.57-3.2-10.76-6.23-15.34-7.61-11.61-20.76-19.26-35.68-19.26-23.57,0-42.69,19.12-42.69,42.69s19.12,42.69,42.69,42.69c18.98,0,35.06-12.38,40.6-29.51,1.36-4.14,2.09-8.59,2.09-13.18v-.41c0-.6-.02-1.19-.05-1.79ZM310.65,607.25c-21.06,0-38.13-17.08-38.13-38.13s17.08-38.13,38.13-38.13c12.5,0,23.59,6.02,30.54,15.3l-15.02,4.64c-4.06-3.15-9.17-5.02-14.69-5.02-13.28,0-24.04,10.76-24.04,24.04s10.76,24.04,24.04,24.04c8.65,0,16.25-4.58,20.47-11.44l14.32.17c-5.47,14.34-19.36,24.54-35.63,24.54Z"/>
    <path d="M335.52,569.95c0,4.61-1.29,8.94-3.56,12.6-4.23,6.86-11.82,11.44-20.47,11.44-13.28,0-24.04-10.76-24.04-24.04s10.76-24.04,24.04-24.04c5.52,0,10.63,1.87,14.69,5.02,5.69,4.38,9.35,11.27,9.35,19.02Z"/>
    <polygon points="471.46 584.04 463.04 583.96 392.55 583.2 391.79 583.2 346.69 582.72 346.28 582.72 331.95 582.55 315.62 582.38 315.62 554.2 326.17 550.93 341.19 546.29 341.77 546.11 385.57 532.57 386.05 532.43 452.58 511.86 461.25 509.17 471.46 584.04"/>
    <path d="M706.93,733.25c-126.81,0-229.62-102.81-229.62-229.62,0-87.45,48.89-163.48,120.83-202.24-84.27,33.17-144.2,114.73-145.56,210.47-.02,1.11-.02,2.21-.02,3.32,0,23.96,3.66,47.07,10.48,68.79,29.23,93.24,116.32,160.9,219.22,160.9,39.79,0,77.24-10.13,109.87-27.94-26.34,10.54-55.09,16.33-85.2,16.33Z"/>
    <path d="M906.77,563.87c-26.34,64.23-89.53,109.47-163.25,109.47-97.42,0-176.4-78.96-176.4-176.38s78.98-176.4,176.4-176.4c12.75,0,25.18,1.36,37.15,3.93-16.61-4.69-34.17-7.2-52.32-7.2-104.43,0-189.08,83.06-189.08,185.52s84.65,185.52,189.08,185.52c82.16,0,152.08-51.41,178.16-123.23.53-1.43,1.03-2.87,1.49-4.31-.38,1.04-.8,2.06-1.23,3.08Z"/>
    <path d="M845.85,499.21c-2.16,33.16-18.4,62.68-42.99,82.38-18.7,14.97-42.21,24.27-67.99,25.17-63.6,2.2-116.91-47.56-119.1-111.16-2.2-63.58,47.56-116.9,111.16-119.1,30.65-1.04,58.92,9.96,80.22,28.8-16.94-11.69-37.5-18.54-59.65-18.54-6.91,0-13.68.66-20.23,1.96-50,7.36-88.37,50.45-88.37,102.49,0,40,22.66,74.7,55.85,91.96,14.29,7.44,30.54,11.65,47.76,11.65,54.54,0,99.22-42.13,103.32-95.61Z"/>
    <path d="M809.67,484.57c0,26.56-21.52,48.08-48.08,48.08-8.65,0-16.78-2.29-23.79-6.28,5.9,2.97,12.58,4.63,19.65,4.63,24.27,0,43.93-19.66,43.93-43.93s-19.66-43.93-43.93-43.93-43.19,18.93-43.9,42.57c-.03-.36-.03-.75-.03-1.13,0-26.56,21.52-48.08,48.08-48.08s48.08,21.52,48.08,48.08Z"/>
  </g>
</svg>