<?xml version="1.0" encoding="UTF-8"?>
<svg id="Calque_1" xmlns="http://www.w3.org/2000/svg" viewBox="0 0 903.65 519.04">
  <defs>
    <style>
      .cls-1 {
        fill: #fff;
      }
    </style>
  </defs>
  <g id="haltère">
    <path class="cls-1" d="M389.16,266.6c-.23-12.6-3.05-24.59-7.94-35.43l-43.8,13.54c-7.61-11.61-20.76-19.26-35.68-19.26-23.57,0-42.69,19.12-42.69,42.69s19.12,42.69,42.69,42.69c18.98,0,35.06-12.38,40.6-29.51l45.09.48c-7.71,36.47-40.09,63.84-78.85,63.84-44.53,0-80.62-36.09-80.62-80.61s36.09-80.62,80.62-80.62c25.66,0,48.53,11.99,63.28,30.67-16.46-22.61-43.14-37.3-73.23-37.3-50.02,0-90.57,40.55-90.57,90.57s40.55,90.55,90.57,90.55c45.44,0,83.06-33.49,89.56-77.11.66-4.39.99-8.89.99-13.45,0-.58,0-1.18-.03-1.76v.02ZM306.3,305.86c-21.06,0-38.13-17.08-38.13-38.13s17.08-38.13,38.13-38.13c12.5,0,23.59,6.02,30.54,15.3l-15.02,4.64c-4.06-3.15-9.17-5.02-14.69-5.02-13.28,0-24.04,10.76-24.04,24.04s10.76,24.04,24.04,24.04c8.65,0,16.25-4.58,20.47-11.44l14.32.17c-5.47,14.34-19.36,24.54-35.63,24.54h0Z"/>
    <path class="cls-1" d="M344.38,265.94c-.08-1.44-.23-2.88-.45-4.29-.07-.55-.17-1.08-.28-1.59-1.06-5.57-3.2-10.76-6.23-15.34-7.61-11.61-20.76-19.26-35.68-19.26-23.57,0-42.69,19.12-42.69,42.69s19.12,42.69,42.69,42.69c18.98,0,35.06-12.38,40.6-29.51,1.36-4.14,2.09-8.59,2.09-13.18v-.41c0-.6-.02-1.19-.05-1.79h0ZM306.3,305.86c-21.06,0-38.13-17.08-38.13-38.13s17.08-38.13,38.13-38.13c12.5,0,23.59,6.02,30.54,15.3l-15.02,4.64c-4.06-3.15-9.17-5.02-14.69-5.02-13.28,0-24.04,10.76-24.04,24.04s10.76,24.04,24.04,24.04c8.65,0,16.25-4.58,20.47-11.44l14.32.17c-5.47,14.34-19.36,24.54-35.63,24.54h0Z"/>
    <path class="cls-1" d="M331.17,268.56c0,4.61-1.29,8.94-3.56,12.6-4.23,6.86-11.82,11.44-20.47,11.44-13.28,0-24.04-10.76-24.04-24.04s10.76-24.04,24.04-24.04c5.52,0,10.63,1.87,14.69,5.02,5.69,4.38,9.35,11.27,9.35,19.02h-.01Z"/>
    <polygon class="cls-1" points="467.11 282.65 458.69 282.57 388.2 281.81 387.44 281.81 342.34 281.33 341.93 281.33 327.6 281.16 311.27 280.99 311.27 252.81 321.82 249.54 336.84 244.9 337.42 244.72 381.22 231.18 381.7 231.04 448.23 210.47 456.9 207.78 467.11 282.65"/>
    <path class="cls-1" d="M702.58,431.86c-126.81,0-229.62-102.81-229.62-229.62,0-87.45,48.89-163.48,120.83-202.24-84.27,33.17-144.2,114.73-145.56,210.47-.02,1.11-.02,2.21-.02,3.32,0,23.96,3.66,47.07,10.48,68.79,29.23,93.24,116.32,160.9,219.22,160.9,39.79,0,77.24-10.13,109.87-27.94-26.34,10.54-55.09,16.33-85.2,16.33h0Z"/>
    <path class="cls-1" d="M902.42,262.48c-26.34,64.23-89.53,109.47-163.25,109.47-97.42,0-176.4-78.96-176.4-176.38S641.75,19.17,739.17,19.17c12.75,0,25.18,1.36,37.15,3.93-16.61-4.69-34.17-7.2-52.32-7.2-104.43,0-189.08,83.06-189.08,185.52s84.65,185.52,189.08,185.52c82.16,0,152.08-51.41,178.16-123.23.53-1.43,1.03-2.87,1.49-4.31-.38,1.04-.8,2.06-1.23,3.08Z"/>
    <path class="cls-1" d="M841.5,197.82c-2.16,33.16-18.4,62.68-42.99,82.38-18.7,14.97-42.21,24.27-67.99,25.17-63.6,2.2-116.91-47.56-119.1-111.16-2.2-63.58,47.56-116.9,111.16-119.1,30.65-1.04,58.92,9.96,80.22,28.8-16.94-11.69-37.5-18.54-59.65-18.54-6.91,0-13.68.66-20.23,1.96-50,7.36-88.37,50.45-88.37,102.49,0,40,22.66,74.7,55.85,91.96,14.29,7.44,30.54,11.65,47.76,11.65,54.54,0,99.22-42.13,103.32-95.61h.02Z"/>
    <path class="cls-1" d="M805.32,183.18c0,26.56-21.52,48.08-48.08,48.08-8.65,0-16.78-2.29-23.79-6.28,5.9,2.97,12.58,4.63,19.65,4.63,24.27,0,43.93-19.66,43.93-43.93s-19.66-43.93-43.93-43.93-43.19,18.93-43.9,42.57c-.03-.36-.03-.75-.03-1.13,0-26.56,21.52-48.08,48.08-48.08s48.08,21.52,48.08,48.08h-.01Z"/>
  </g>
  <g>
    <path class="cls-1" d="M447.36,518.56v-52.13h13.7c7.19,0,13.33,2.55,18.43,7.65,5.08,5.1,7.61,11.24,7.61,18.43s-2.54,13.3-7.61,18.4c-5.1,5.1-11.24,7.65-18.43,7.65h-13.7ZM455.23,510.69h5.83c5,0,9.29-1.78,12.86-5.35,3.54-3.55,5.32-7.82,5.32-12.82s-1.77-9.31-5.32-12.86-7.86-5.35-12.86-5.35h-5.83v36.39h0Z"/>
    <path class="cls-1" d="M499.52,513.61c-3.62-3.62-5.43-7.99-5.43-13.11v-34.1h7.94v34.1c0,2.94,1.03,5.44,3.1,7.5,2.09,2.09,4.59,3.13,7.5,3.13s5.44-1.04,7.5-3.13c2.09-2.06,3.13-4.57,3.13-7.5v-34.1h7.94v34.1c0,5.12-1.82,9.5-5.46,13.11-3.62,3.62-7.99,5.43-13.11,5.43s-9.47-1.81-13.11-5.43Z"/>
    <path class="cls-1" d="M566.37,466.43v39.52l23.28-39.52h9.18l-30.71,52.13h-9.69v-52.13h7.94Z"/>
    <path class="cls-1" d="M630.23,466.43v7.9h-18.69v14.13h14.43v7.9h-14.43v14.28h18.69v7.9h-26.59v-52.13h26.59v.02Z"/>
    <path class="cls-1" d="M644.47,466.43v44.22h18.69v7.9h-26.59v-52.13h7.91,0Z"/>
    <path class="cls-1" d="M709.46,466.43v52.13h-7.94v-12.17h-17.7l-7.69,12.17h-9.36l32.97-52.13h9.73,0ZM688.8,498.49h12.71v-20.07l-12.71,20.07Z"/>
    <path class="cls-1" d="M754.48,466.43l-16.25,27.61v24.52h-7.94v-24.52l-16.25-27.61h9.18l11.04,18.72,11.04-18.72h9.18Z"/>
  </g>
  <g>
    <path class="cls-1" d="M5.43,458.9c-3.62-3.62-5.43-7.99-5.43-13.11v-34.1h7.94v34.1c0,2.94,1.03,5.44,3.1,7.5,2.09,2.09,4.59,3.13,7.5,3.13s5.44-1.04,7.5-3.13c2.09-2.06,3.13-4.57,3.13-7.5v-34.1h7.94v34.1c0,5.12-1.82,9.5-5.46,13.11-3.62,3.62-7.99,5.43-13.11,5.43s-9.47-1.81-13.11-5.43Z"/>
    <path class="cls-1" d="M84,411.72v52.13h-8.27l-22.29-37.27v37.27h-7.9v-52.13h8.27l22.26,37.27v-37.27h7.94-.01Z"/>
    <path class="cls-1" d="M100.21,463.85h-7.9v-52.06h7.9v52.06Z"/>
    <path class="cls-1" d="M113.87,456.57c-5.2-5.2-7.8-11.46-7.8-18.8s2.6-13.6,7.8-18.8,11.46-7.8,18.8-7.8,13.6,2.6,18.8,7.8,7.8,11.46,7.8,18.8-2.6,13.6-7.8,18.8-11.46,7.8-18.8,7.8-13.6-2.6-18.8-7.8ZM119.48,424.58c-3.64,3.64-5.46,8.04-5.46,13.19s1.82,9.54,5.46,13.19c3.64,3.64,8.04,5.46,13.19,5.46s9.54-1.82,13.19-5.46c3.64-3.64,5.46-8.04,5.46-13.19s-1.82-9.54-5.46-13.19c-3.64-3.64-8.04-5.46-13.19-5.46s-9.54,1.82-13.19,5.46Z"/>
    <path class="cls-1" d="M203.34,411.72v52.13h-8.27l-22.29-37.27v37.27h-7.9v-52.13h8.27l22.26,37.27v-37.27h7.94-.01Z"/>
    <path class="cls-1" d="M243.96,464.32c-3.45-.15-6.63-1.07-9.54-2.77-3.3-1.92-5.55-4.49-6.74-7.72l7.43-2.73c.61,1.6,1.86,2.9,3.75,3.9,1.68.85,3.5,1.32,5.46,1.42,3.04.12,5.55-.62,7.54-2.22,1.68-1.36,2.56-2.91,2.66-4.66.15-3.33-3.34-5.99-10.45-7.98-11.15-3.13-16.55-8.44-16.21-15.92.22-5.25,2.46-9.17,6.74-11.77,3.25-1.99,7.16-2.88,11.73-2.66,5.54.24,9.98,2.17,13.33,5.79l-5.79,5.39c-1.89-2.04-4.53-3.13-7.9-3.28-2.38-.1-4.41.21-6.08.91-2.62,1.12-4,3.11-4.12,5.97-.15,3.28,3.34,5.91,10.45,7.9,6.41,1.8,10.95,4.44,13.62,7.94,1.85,2.43,2.71,5.11,2.59,8.05-.19,4.13-2.06,7.63-5.61,10.49-3.3,2.65-7.26,3.97-11.88,3.97-.34,0-.67-.01-.98-.04v.02Z"/>
    <path class="cls-1" d="M276.74,463.85h-7.91v-52.13h19.23c4.15,0,7.7,1.48,10.64,4.44,2.96,2.94,4.44,6.5,4.44,10.67s-1.48,7.7-4.44,10.64c-2.94,2.94-6.48,4.41-10.64,4.41h-11.33v21.97h0ZM276.74,433.98h11.33c1.97,0,3.65-.7,5.06-2.11s2.08-3.06,2.08-5.03-.69-3.69-2.08-5.1c-1.41-1.41-3.1-2.11-5.06-2.11h-11.33v14.35Z"/>
    <path class="cls-1" d="M314.56,456.57c-5.2-5.2-7.8-11.46-7.8-18.8s2.6-13.6,7.8-18.8,11.46-7.8,18.8-7.8,13.6,2.6,18.8,7.8c5.2,5.2,7.8,11.46,7.8,18.8s-2.6,13.6-7.8,18.8-11.46,7.8-18.8,7.8-13.6-2.6-18.8-7.8ZM320.17,424.58c-3.64,3.64-5.46,8.04-5.46,13.19s1.82,9.54,5.46,13.19c3.64,3.64,8.04,5.46,13.19,5.46s9.54-1.82,13.19-5.46c3.64-3.64,5.46-8.04,5.46-13.19s-1.82-9.54-5.46-13.19c-3.64-3.64-8.04-5.46-13.19-5.46s-9.54,1.82-13.19,5.46Z"/>
    <path class="cls-1" d="M402.82,463.85h-8.93l-11.4-21.97h-8.92v21.97h-7.9v-52.13h19.23c4.15,0,7.7,1.48,10.64,4.44,2.96,2.94,4.44,6.5,4.44,10.67,0,3.06-.86,5.85-2.59,8.38-1.68,2.48-3.87,4.3-6.59,5.46l12.02,23.17h0ZM384.9,433.98c1.97,0,3.65-.7,5.06-2.11s2.08-3.06,2.08-5.03-.69-3.69-2.08-5.1c-1.41-1.41-3.1-2.11-5.06-2.11h-11.33v14.35h11.33Z"/>
    <path class="cls-1" d="M435.5,411.72v7.9h-11.04v44.22h-7.94v-44.22h-11.04v-7.9h30.02Z"/>
    <path class="cls-1" d="M450.58,463.85h-7.9v-52.06h7.9v52.06Z"/>
    <path class="cls-1" d="M466.93,411.72v39.52l23.28-39.52h9.18l-30.71,52.13h-9.69v-52.13h7.94Z"/>
    <path class="cls-1" d="M530.79,411.72v7.9h-18.69v14.13h14.43v7.9h-14.43v14.28h18.69v7.9h-26.59v-52.13h26.59v.02Z"/>
  </g>
  <g>
    <path class="cls-1" d="M378.86,476.3c-1.21.92-2.42,1.69-3.63,2.33-1.64.88-2.72,1.32-3.24,1.32-.55,0-.83-.44-.83-1.32,0-.31.07-.58.21-.8.14-.21.47-.41.98-.6,1.55-.66,3.82-1.92,6.79-3.78,1.35-.85,2.3-1.27,2.85-1.27.36,0,.69.18.98.54.19.24.28.5.28.78,0,.43-.34,1.17-1.01,2.2-4.99,8.08-8.44,14.43-10.36,19.04-.47,1.12-.8,1.82-1.01,2.1-.33.47-.66.7-.98.7s-.64-.2-.93-.6c-.17-.22-.26-.47-.26-.73,0-.93,1.33-4.01,3.99-9.22,2.49-4.9,4.54-8.47,6.17-10.7h0Z"/>
    <path class="cls-1" d="M396.19,486.35c-2.4,1.17-4.29,1.76-5.67,1.76s-2.43-.57-3.19-1.71c-.57-.81-.85-1.79-.85-2.93,0-2.97,1.32-5.82,3.96-8.55,2.4-2.49,4.87-3.73,7.41-3.73,1.45,0,2.62.51,3.5,1.53.76.88,1.14,2,1.14,3.37,0,2.99-1.07,6.36-3.21,10.13-1.16,2.04-2.97,4.42-5.44,7.15-2.76,3.07-4.58,4.61-5.44,4.61-.24,0-.47-.1-.67-.31-.17-.19-.26-.4-.26-.62,0-.41.35-.92,1.06-1.5,3.21-2.69,5.77-5.76,7.67-9.2h0ZM397.72,483.3c1.21-2.49,1.81-4.54,1.81-6.17,0-1.17-.21-2.06-.63-2.64-.42-.59-1.06-.88-1.9-.88-1.76,0-3.5,1.03-5.21,3.08-1.68,2.02-2.51,4.03-2.51,6.04,0,.9.21,1.57.63,2.02s1.06.67,1.9.67c1.14,0,2.48-.35,4.02-1.04,1.17-.55,1.8-.92,1.89-1.09h0Z"/>
    <path class="cls-1" d="M417.25,473.87c.93.36,1.63.95,2.08,1.75.46.8.69,1.83.69,3.07,0,3.85-1.5,7.94-4.51,12.28-3.26,4.71-6.39,7.07-9.38,7.07-1.49,0-2.6-.77-3.34-2.31-.48-1-.73-2.21-.73-3.63,0-3.42,1.25-7.03,3.76-10.83,1.29-1.95,3.05-3.96,5.26-6.04,2.31-2.14,3.98-3.21,5-3.21.78,0,1.17.61,1.17,1.84h0ZM413.88,475.73c-2.02,1.66-3.81,3.68-5.36,6.06-2.23,3.42-3.34,6.73-3.34,9.92,0,.95.13,1.69.39,2.23.43.83,1.03,1.24,1.79,1.24,1.19,0,2.62-.92,4.27-2.75,1.85-2.04,3.3-4.52,4.35-7.46.81-2.23,1.22-4.11,1.22-5.65,0-1.07-.33-1.99-.98-2.75-.45-.54-1.05-.82-1.79-.85h-.55Z"/>
    <path class="cls-1" d="M428.83,481.77c-.76-.74-1.3-1.35-1.61-1.81-.47-.73-.7-1.49-.7-2.31,0-1.8.91-3.31,2.72-4.53,1.55-1.05,3.25-1.58,5.08-1.58,1.33,0,2.39.41,3.19,1.24.69.73,1.04,1.6,1.04,2.62,0,1.54-.74,2.95-2.23,4.25-.79.71-1.91,1.53-3.34,2.46.9.9,1.57,1.78,2.02,2.66.45.87.67,1.72.67,2.55,0,1.62-.54,3.23-1.63,4.82-1.17,1.71-2.67,3.09-4.48,4.15-1.85,1.07-3.7,1.61-5.57,1.61-1.62,0-2.96-.59-4.02-1.76-.78-.9-1.17-1.87-1.17-2.93,0-2.81,1.73-5.54,5.18-8.19,1.81-1.4,3.43-2.48,4.84-3.24h.01ZM430.59,483.53c-2.07,1.05-3.83,2.25-5.26,3.57-2,1.87-3.01,3.66-3.01,5.39,0,1,.31,1.73.93,2.18.64.43,1.3.65,1.99.65.97,0,1.98-.3,3.04-.89s1.96-1.38,2.71-2.34c1.1-1.42,1.66-2.89,1.66-4.43,0-1.07-.33-2.06-.98-2.98-.16-.21-.39-.47-.7-.78-.24-.24-.37-.36-.39-.36h.01ZM431.31,480.21c1.04-.57,1.92-1.21,2.64-1.92.93-.92,1.4-1.78,1.4-2.59,0-.52-.16-.95-.49-1.29-.36-.41-.84-.62-1.42-.62-1,0-1.93.35-2.8,1.06-.74.6-1.11,1.3-1.11,2.1,0,.57.32,1.29.96,2.15l.83,1.11h-.01Z"/>
  </g>
</svg>